<svg preserveAspectRatio="none" width="100%" height="100%" overflow="visible" style="display: block;" viewBox="0 0 148 148" fill="none" xmlns="http://www.w3.org/2000/svg">
<g id="Group">
<path id="Vector" d="M87.0788 73.9998L145.29 15.7951C148.903 12.1817 148.903 6.3232 145.29 2.71007C141.676 -0.903356 135.818 -0.903356 132.205 2.71007L73.9998 60.9208L15.7951 2.71007C12.1817 -0.903356 6.3232 -0.903356 2.71007 2.71007C-0.903066 6.32349 -0.903356 12.182 2.71007 15.7951L60.9208 73.9998L2.71007 132.205C-0.903356 135.818 -0.903356 141.677 2.71007 145.29C6.32349 148.903 12.182 148.903 15.7951 145.29L73.9998 87.0788L132.204 145.29C135.818 148.903 141.676 148.903 145.29 145.29C148.903 141.676 148.903 135.818 145.29 132.205L87.0788 73.9998Z" fill="var(--fill-0, #4D4D4D)"/>
</g>
</svg>
